<?xml version="1.0" standalone="no"?><!DOCTYPE svg PUBLIC "-//W3C//DTD SVG 1.1//EN" "http://www.w3.org/Graphics/SVG/1.1/DTD/svg11.dtd"><svg t="1560493785439" class="icon" style="" viewBox="0 0 1024 1024" version="1.1" xmlns="http://www.w3.org/2000/svg" p-id="3126" xmlns:xlink="http://www.w3.org/1999/xlink" width="200" height="200"><defs><style type="text/css"></style></defs><path d="M574.370909 916.48h-7.447273l-395.636363-129.861818a23.272727 23.272727 0 0 1-15.825455-22.341818V130.792727A23.272727 23.272727 0 0 1 186.181818 108.450909l395.636364 128.930909a23.272727 23.272727 0 0 1 15.825454 22.341818v633.483637a23.272727 23.272727 0 0 1-23.272727 23.272727z m-372.363636-168.96l349.090909 114.036364V276.48L201.541818 162.443636z" fill="#ffffff" p-id="3127"></path><path d="M714.472727 787.549091h-139.636363v-46.545455h116.829091v-178.269091h46.545454v201.541819a23.272727 23.272727 0 0 1-23.738182 23.272727zM737.745455 345.367273h-46.545455V154.065455h-512v-46.545455h535.272727a23.272727 23.272727 0 0 1 23.272728 23.272727z" fill="#ffffff" p-id="3128"></path><path d="M638.138182 436.596364h191.301818v46.545454h-191.301818z" fill="#ffffff" p-id="3129"></path><path d="M800.581818 541.789091l-33.978182-29.789091 46.545455-50.734545-47.941818-59.112728 35.374545-29.789091 62.836364 73.076364a23.272727 23.272727 0 0 1 0 31.185455z" fill="#ffffff" p-id="3130"></path></svg>